:SAMPLES-PER-SECOND 24
:FULLY-SPECIFIED
:DEGREES
210
root  3.96402 38.3454 27.4483 9.50684 -52.5435 -4.35217
RightUpLeg  -15.272 8.87242 -8.18507
RightLeg  26.4964 -5.14436 -3.00645
RightFoot  -16.0975 0.202942 7.52639
RightToes  -2.08645e-008 3.77894e-005 6.81332e-007
Spine  10.9543 -2.8973 3.80907
Spine1  3.04233 -3.99374 5.70972
HEad  -44.5652 37.0271 -26.1397
LeftShoulder1  7.29946 -13.19 -37.6295
LeftArm  5.88444 12.5569 -20.3914
LeftForeArm  52.3482 -75.8055 -42.1554
LeftHand  -0.796327 -3.26239 10.9218
RightShoulder  4.04818 6.8663 33.1509
RightArm  -1.77681 -17.079 24.8328
RightForeArm  13.1742 39.951 8.53952
RightHand  -1.51311 6.64559 -14.8421
LeftUpLeg  -26.3518 16.7645 6.36949
LeftLeg  64.0144 1.51537 4.05725
LeftFoot  -3.42694 1.01821 -14.2842
LeftToes  1.24767e-006 1.47042e-008 1.32732e-009
211
root  3.8018 38.7069 28.5275 9.3562 -52.0032 -3.28101
RightUpLeg  -12.9739 8.51527 -9.7226
RightLeg  23.067 -6.08207 -3.04961
RightFoot  -13.7318 0.0777804 8.18824
RightToes  -2.08645e-008 3.77894e-005 6.81332e-007
Spine  11.5641 -1.82408 4.9849
Spine1  1.10664 -2.16656 2.97122
HEad  -43.9739 36.0941 -25.2667
LeftShoulder1  7.74074 -13.587 -39.1335
LeftArm  7.38462 23.2099 -18.9757
LeftForeArm  51.2984 -75.6801 -41.9005
LeftHand  -0.751809 -3.18186 10.4147
RightShoulder  4.07129 6.87618 33.3358
RightArm  1.25309 -9.31847 30.2436
RightForeArm  17.1376 45.5663 10.2272
RightHand  -1.44972 6.71904 -14.1547
LeftUpLeg  -30.5285 18.7903 4.92097
LeftLeg  59.0987 3.91832 7.61503
LeftFoot  -4.04513 0.77707 -11.7777
LeftToes  1.24767e-006 1.47042e-008 1.32732e-009
212
root  3.66235 38.886 29.6935 10.4856 -49.9925 -3.6442
RightUpLeg  -10.5589 6.91633 -10.2079
RightLeg  20.0284 -7.03972 -3.049
RightFoot  -12.3239 -0.000446746 9.56807
RightToes  -2.08645e-008 3.77894e-005 6.81332e-007
Spine  10.8089 -0.120629 7.5917
Spine1  0.519149 0.297071 -0.08911
HEad  -43.1577 32.8279 -23.4029
LeftShoulder1  7.68817 -13.5682 -38.886
LeftArm  9.09743 33.1273 -18.6796
LeftForeArm  59.6529 -77.5902 -50.9676
LeftHand  -0.697188 -3.26788 9.58816
RightShoulder  4.03576 6.86904 33.0206
RightArm  4.74807 -3.17711 35.9384
RightForeArm  21.8996 53.0571 13.2236
RightHand  -1.39348 5.89837 -14.5696
LeftUpLeg  -34.6067 19.9092 4.31736
LeftLeg  51.4769 5.58352 7.9674
LeftFoot  -4.64424 0.768332 -12.6196
LeftToes  1.24767e-006 1.47042e-008 1.32732e-009
213
root  3.53207 38.7996 30.9746 11.9329 -47.1439 -5.21249
RightUpLeg  -7.49619 4.44966 -9.60211
RightLeg  17.8907 -7.81522 -3.37861
RightFoot  -12.0642 -0.00668295 12.0701
RightToes  -2.08645e-008 3.77894e-005 6.81332e-007
Spine  10.3873 2.4091 11.6613
Spine1  -0.274737 3.74336 -4.11248
HEad  -41.2384 27.8332 -21.1465
LeftShoulder1  7.48267 -13.4685 -37.9802
LeftArm  10.3954 41.9894 -18.9796
LeftForeArm  67.5904 -78.6363 -57.7366
LeftHand  -0.69522 -3.28114 9.54766
RightShoulder  3.94896 6.78363 32.4996
RightArm  7.83757 2.02252 40.6315
RightForeArm  28.1457 60.7821 17.7253
RightHand  -1.38176 4.96122 -15.699
LeftUpLeg  -37.8503 21.6721 3.99625
LeftLeg  41.6674 5.84107 5.99943
LeftFoot  -5.01388 0.73898 -12.7876
LeftToes  1.24767e-006 1.47042e-008 1.32732e-009
214
root  3.39238 38.6417 32.3937 12.4614 -43.3357 -6.69775
RightUpLeg  -3.26346 0.47566 -8.83217
RightLeg  15.9098 -7.56832 -3.65839
RightFoot  -10.8214 -0.131766 12.5854
RightToes  -2.08645e-008 3.77894e-005 6.81332e-007
Spine  10.8249 4.78598 15.1244
Spine1  -1.66671 6.97796 -8.49645
HEad  -39.0796 22.8498 -18.786
LeftShoulder1  7.48311 -13.5652 -37.7407
LeftArm  7.36118 51.5167 -19.9061
LeftForeArm  74.0176 -79.3002 -64.0134
LeftHand  -0.684363 -3.10194 9.5881
RightShoulder  3.89266 6.72527 32.1674
RightArm  10.9416 7.56961 44.1092
RightForeArm  35.3306 66.9374 23.3543
RightHand  -1.27581 4.11162 -15.7633
LeftUpLeg  -39.9283 23.5065 2.99316
LeftLeg  30.3949 7.57767 5.13707
LeftFoot  -4.64895 0.789751 -13.0184
LeftToes  1.24767e-006 1.47042e-008 1.32732e-009
